<svg width="186" height="48" viewBox="0 0 186 48" fill="none" xmlns="http://www.w3.org/2000/svg">
<path fill-rule="evenodd" clip-rule="evenodd" d="M11.0982 20.8173C11.2257 20.6923 11.2381 20.4923 11.1306 20.3498C4.17063 11.0548 5.80318 2.30981 14.7457 1.63981C25.2682 0.852313 26.7082 6.18231 26.7332 9.05731C26.7357 9.47481 27.2907 9.61981 27.4932 9.25231C28.0207 8.29731 28.6207 7.07481 28.8532 6.10981C29.4257 3.73231 30.0182 -0.107688 16.6557 0.00231229C7.61566 0.0773123 -2.81933 1.53731 0.853168 10.4373L0.858173 10.4423C2.22067 13.7423 5.41317 16.9523 8.73317 19.6073C9.36817 20.0523 10.0407 20.4948 10.6632 20.8648C10.8032 20.9473 10.9807 20.9273 11.0982 20.8123V20.8173ZM149.906 0.60231V4.87731H153.438V0.60231H149.906ZM153.438 20.5198V6.28481H149.906V20.5198H153.438ZM48.9531 6.01981C49.5381 5.43731 50.2181 4.97731 50.9981 4.63981C51.7781 4.30231 52.6107 4.13481 53.4957 4.13481C54.1857 4.13481 54.8406 4.23731 55.4606 4.43981C56.0806 4.64231 56.6507 4.92731 57.1732 5.28981C57.6957 5.65481 58.1507 6.08731 58.5406 6.59231C58.9306 7.09731 59.2406 7.64981 59.4706 8.25231L62.5507 6.47231C62.1607 5.60481 61.6607 4.81231 61.0507 4.09481C60.4407 3.37981 59.7406 2.76231 58.9531 2.24981C58.1656 1.73731 57.3106 1.33481 56.3906 1.04231C55.4706 0.749813 54.5057 0.604813 53.4957 0.604813C52.1157 0.604813 50.8232 0.864813 49.6182 1.38731C48.4157 1.90981 47.3606 2.62231 46.4581 3.52481C45.5556 4.42731 44.8431 5.47981 44.3206 6.68481C43.8006 7.88981 43.5381 9.18231 43.5381 10.5623C43.5381 11.9423 43.7981 13.2348 44.3206 14.4398C44.8431 15.6423 45.5556 16.6973 46.4581 17.5998C47.3606 18.5023 48.4132 19.2148 49.6182 19.7373C50.8232 20.2598 52.1157 20.5198 53.4957 20.5198C54.8757 20.5198 56.1681 20.2598 57.3731 19.7373C58.5756 19.2148 59.6306 18.5023 60.5331 17.5998C61.4356 16.6973 62.1482 15.6448 62.6707 14.4398C63.1932 13.2348 63.4531 11.9423 63.4531 10.5623C63.4531 10.5073 63.4481 10.4548 63.4406 10.4023C63.4331 10.3498 63.4282 10.2948 63.4282 10.2423H53.4957V13.7748H59.0457C58.4782 14.7498 57.7131 15.5273 56.7481 16.1123C55.7831 16.6973 54.7007 16.9898 53.4957 16.9898C52.6082 16.9898 51.7781 16.8223 50.9981 16.4848C50.2181 16.1498 49.5356 15.6898 48.9531 15.1048C48.3706 14.5198 47.9106 13.8398 47.5731 13.0598C47.2356 12.2798 47.0681 11.4498 47.0681 10.5623C47.0681 9.67481 47.2356 8.84481 47.5731 8.06481C47.9081 7.28481 48.3681 6.60231 48.9531 6.01981ZM67.2231 8.37231C66.5756 9.01731 66.0681 9.77481 65.6956 10.6423H65.7006C65.3281 11.5098 65.1431 12.4148 65.1431 13.4048C65.1431 14.3948 65.3281 15.3223 65.7006 16.1798C66.0731 17.0398 66.5807 17.7898 67.2281 18.4373C67.8756 19.0848 68.6282 19.5923 69.4857 19.9648C70.3432 20.3373 71.2681 20.5223 72.2606 20.5223C72.9856 20.5223 73.6857 20.4173 74.3582 20.2048C75.0307 19.9923 75.6456 19.6998 76.2031 19.3273C76.7606 18.9573 77.2606 18.5098 77.7031 17.9873C78.1456 17.4648 78.5006 16.8848 78.7656 16.2473H74.4631C73.8256 16.7423 73.0906 16.9898 72.2581 16.9898C71.5156 16.9898 70.8606 16.7998 70.2932 16.4198C69.7257 16.0398 69.2907 15.5398 68.9907 14.9198H79.1881C79.2406 14.6698 79.2856 14.4223 79.3206 14.1748C79.3556 13.9273 79.3731 13.6698 79.3731 13.4048C79.3731 12.4298 79.1881 11.5098 78.8156 10.6423C78.4431 9.77481 77.9331 9.01981 77.2881 8.37231C76.6432 7.72481 75.8856 7.21731 75.0181 6.84481C74.1506 6.47231 73.2456 6.28731 72.2556 6.28731C71.2656 6.28731 70.3382 6.47231 69.4807 6.84481C68.6232 7.21731 67.8706 7.72731 67.2231 8.37231ZM68.9907 11.9148C69.2732 11.2973 69.7031 10.7923 70.2781 10.4023H70.2806C70.8556 10.0123 71.5156 9.81731 72.2581 9.81731C73.0006 9.81731 73.6607 10.0123 74.2357 10.4023C74.8107 10.7898 75.2406 11.2948 75.5231 11.9148H68.9907ZM90.8606 11.5973C90.7906 11.2423 90.6706 10.9323 90.5031 10.6673C90.3356 10.4023 90.1131 10.1948 89.8381 10.0423C89.5631 9.89231 89.2306 9.81731 88.8431 9.81731C88.4556 9.81731 88.0106 9.89231 87.5681 10.0423C87.1256 10.1923 86.7231 10.4148 86.3606 10.7073C85.9981 10.9998 85.7006 11.3498 85.4706 11.7573C85.2406 12.1648 85.1256 12.6148 85.1256 13.1123V20.5223H81.5931V6.28731H85.1256V8.46481C85.6206 7.87981 86.1756 7.37231 86.7856 6.93731C87.3956 6.50231 88.0831 6.28731 88.8431 6.28731C89.7456 6.28731 90.5481 6.45481 91.2457 6.79231C91.9456 7.12981 92.5381 7.58981 93.0256 8.17231C93.5131 8.75731 93.8806 9.44231 94.1281 10.2298C94.3756 11.0173 94.5006 11.8548 94.5006 12.7398V20.5223H90.9681V12.7398C90.9681 12.3323 90.9331 11.9523 90.8631 11.5973H90.8606ZM98.8031 8.37231C98.1556 9.01731 97.6481 9.77481 97.2756 10.6423H97.2806C96.9081 11.5098 96.7231 12.4148 96.7231 13.4048C96.7231 14.3948 96.9081 15.3223 97.2806 16.1798C97.6531 17.0398 98.1607 17.7898 98.8082 18.4373C99.4557 19.0848 100.208 19.5923 101.066 19.9648C101.923 20.3373 102.848 20.5223 103.841 20.5223C104.566 20.5223 105.266 20.4173 105.938 20.2048C106.611 19.9923 107.226 19.6998 107.783 19.3273C108.341 18.9573 108.841 18.5098 109.283 17.9873C109.726 17.4648 110.081 16.8848 110.346 16.2473H106.043C105.406 16.7423 104.671 16.9898 103.838 16.9898C103.096 16.9898 102.441 16.7998 101.873 16.4198C101.306 16.0398 100.871 15.5398 100.571 14.9198H110.768C110.821 14.6698 110.866 14.4223 110.901 14.1748C110.936 13.9273 110.953 13.6698 110.953 13.4048C110.953 12.4298 110.768 11.5098 110.396 10.6423C110.023 9.77481 109.513 9.01981 108.868 8.37231C108.223 7.72481 107.466 7.21731 106.598 6.84481C105.731 6.47231 104.826 6.28731 103.836 6.28731C102.846 6.28731 101.918 6.47231 101.061 6.84481C100.203 7.21731 99.4506 7.72731 98.8031 8.37231ZM100.571 11.9148C100.853 11.2973 101.283 10.7923 101.858 10.4023H101.861C102.436 10.0123 103.096 9.81731 103.838 9.81731C104.581 9.81731 105.241 10.0123 105.816 10.4023C106.391 10.7898 106.821 11.2948 107.103 11.9148H100.571ZM117.143 6.28481V7.69231C117.498 7.33731 117.918 7.01981 118.406 6.73731C118.893 6.45481 119.418 6.31231 119.986 6.31231C120.198 6.31231 120.438 6.32981 120.703 6.36481C120.968 6.39981 121.306 6.46231 121.713 6.54981V10.1873C121.288 10.0098 120.943 9.89481 120.678 9.84231C120.413 9.78981 120.183 9.76231 119.988 9.76231C119.616 9.76231 119.263 9.83231 118.926 9.97481C118.588 10.1173 118.288 10.3323 118.023 10.6248C117.758 10.9173 117.546 11.2848 117.386 11.7273C117.226 12.1698 117.146 12.6923 117.146 13.2948V20.5198H113.613V6.28481H117.143ZM124.398 19.0873C124.976 19.5298 125.666 19.8798 126.471 20.1373L126.473 20.1323C127.278 20.3898 128.176 20.5173 129.168 20.5173C129.841 20.5173 130.438 20.4123 130.961 20.1998C131.483 19.9873 131.906 19.7398 132.223 19.4573C132.241 19.5648 132.296 19.7323 132.383 19.9623C132.471 20.1923 132.586 20.3773 132.728 20.5198H136.578C136.311 20.2548 136.103 19.9698 135.953 19.6698C135.803 19.3698 135.698 19.0723 135.636 18.7798C135.573 18.4873 135.533 18.2148 135.516 17.9573C135.498 17.7023 135.488 17.4673 135.488 17.2548V11.2523C135.488 9.58731 134.923 8.34231 133.788 7.51981C132.653 6.69731 131.113 6.28481 129.166 6.28481C128.758 6.28481 128.306 6.33731 127.811 6.44481C127.316 6.54981 126.818 6.69731 126.323 6.88231C125.828 7.06731 125.341 7.29731 124.863 7.57231C124.386 7.84481 123.961 8.14981 123.588 8.48731L125.316 10.5848C125.688 10.2673 126.028 10.0048 126.338 9.80231C126.648 9.59731 126.956 9.43481 127.256 9.30981C127.558 9.18731 127.863 9.09731 128.173 9.04481C128.483 8.99231 128.813 8.96481 129.168 8.96481C129.576 8.96481 129.921 9.01981 130.203 9.12481C130.486 9.23231 130.731 9.36981 130.933 9.53731C131.138 9.70481 131.306 9.90481 131.438 10.1348C131.571 10.3648 131.688 10.5948 131.796 10.8248H129.166C128.176 10.8248 127.276 10.9523 126.471 11.2098C125.663 11.4673 124.973 11.8148 124.398 12.2598C123.823 12.7048 123.381 13.2223 123.071 13.8148C122.761 14.4073 122.606 15.0323 122.606 15.6873C122.606 16.3423 122.761 16.9623 123.071 17.5473C123.381 18.1323 123.821 18.6448 124.398 19.0873ZM131.928 15.3173C131.893 15.7948 131.661 16.1948 131.226 16.5123L131.223 16.5148C130.791 16.8323 130.103 16.9923 129.166 16.9923C128.176 16.9923 127.418 16.8673 126.896 16.6198C126.373 16.3723 126.113 16.0798 126.113 15.6898C126.113 15.2998 126.373 14.9373 126.896 14.5998C127.418 14.2623 128.173 14.0948 129.166 14.0948H131.928V15.3173ZM139.511 6.28231V2.96481L143.043 1.92981V6.28481H145.938V9.81731H143.043V15.0748C143.043 15.9248 143.176 16.5098 143.441 16.8273C143.706 17.1448 144.068 17.3048 144.531 17.3048C144.726 17.3048 144.986 17.2698 145.313 17.1998C145.641 17.1298 145.998 17.0498 146.388 16.9598L146.866 20.0398C146.316 20.1823 145.813 20.2973 145.351 20.3848C144.891 20.4723 144.473 20.5173 144.103 20.5173C143.431 20.5173 142.816 20.4198 142.258 20.2248C141.701 20.0298 141.218 19.7148 140.811 19.2823C140.403 18.8498 140.086 18.2873 139.856 17.5948C139.626 16.9048 139.511 16.0623 139.511 15.0723V9.81481H137.651V6.28231H139.511ZM156.653 10.6423C157.026 9.77481 157.533 9.01731 158.181 8.37231C158.826 7.72481 159.581 7.21731 160.438 6.84481C161.296 6.47231 162.221 6.28731 163.213 6.28731C164.206 6.28731 165.108 6.47231 165.976 6.84481C166.843 7.21731 167.601 7.72481 168.246 8.37231C168.891 9.01981 169.401 9.77481 169.773 10.6423C170.146 11.5098 170.331 12.4298 170.331 13.4048C170.331 14.3798 170.146 15.3223 169.773 16.1798C169.401 17.0398 168.893 17.7898 168.246 18.4373C167.598 19.0848 166.843 19.5923 165.976 19.9648C165.108 20.3373 164.188 20.5223 163.213 20.5223C162.238 20.5223 161.296 20.3373 160.438 19.9648C159.581 19.5923 158.826 19.0848 158.181 18.4373C157.533 17.7898 157.026 17.0398 156.653 16.1798C156.281 15.3223 156.096 14.3948 156.096 13.4048C156.096 12.4148 156.281 11.5098 156.653 10.6423ZM159.906 14.7998C160.091 15.2348 160.348 15.6148 160.676 15.9423C161.003 16.2698 161.383 16.5273 161.818 16.7123C162.253 16.8973 162.716 16.9923 163.213 16.9923C163.711 16.9923 164.173 16.8998 164.608 16.7123C165.043 16.5273 165.423 16.2698 165.751 15.9423C166.078 15.6148 166.336 15.2348 166.521 14.7998C166.706 14.3648 166.801 13.9023 166.801 13.4048C166.801 12.9073 166.708 12.4448 166.521 12.0098C166.336 11.5748 166.078 11.1948 165.751 10.8673C165.423 10.5398 165.043 10.2823 164.608 10.0973C164.173 9.91231 163.711 9.81731 163.213 9.81731C162.716 9.81731 162.253 9.90981 161.818 10.0973C161.383 10.2823 161.003 10.5398 160.676 10.8673C160.348 11.1948 160.091 11.5748 159.906 12.0098C159.721 12.4448 159.626 12.9073 159.626 13.4048C159.626 13.9023 159.718 14.3648 159.906 14.7998ZM181.461 10.6673C181.628 10.9323 181.748 11.2423 181.818 11.5973C181.891 11.9523 181.926 12.3323 181.926 12.7398V20.5223H185.458V12.7398C185.458 11.8548 185.333 11.0173 185.086 10.2298C184.838 9.44231 184.471 8.75481 183.983 8.17231C183.496 7.58981 182.903 7.12981 182.203 6.79231C181.506 6.45481 180.703 6.28731 179.801 6.28731C179.041 6.28731 178.353 6.50231 177.743 6.93731C177.133 7.37231 176.578 7.87981 176.083 8.46481V6.28731H172.551V20.5223H176.083V13.1123C176.083 12.6148 176.198 12.1648 176.428 11.7573C176.658 11.3498 176.956 10.9998 177.318 10.7073C177.681 10.4148 178.083 10.1923 178.526 10.0423C178.968 9.89231 179.413 9.81731 179.801 9.81731C180.188 9.81731 180.521 9.88981 180.796 10.0423C181.071 10.1948 181.293 10.4023 181.461 10.6673ZM49.3181 26.7348V43.0698H58.8781V46.6548H45.7056V26.7348H49.3181ZM62.5606 45.2198C63.1381 45.6623 63.8281 46.0123 64.6331 46.2698L64.6406 46.2648C65.4456 46.5223 66.3431 46.6498 67.3356 46.6498C68.0081 46.6498 68.6056 46.5448 69.1281 46.3323C69.6506 46.1198 70.0706 45.8723 70.3906 45.5898C70.4081 45.6973 70.4632 45.8648 70.5507 46.0948C70.6382 46.3248 70.7531 46.5098 70.8956 46.6523H74.7457C74.4782 46.3873 74.2732 46.1023 74.1207 45.8023C73.9682 45.5023 73.8632 45.2048 73.8007 44.9123C73.7382 44.6198 73.6982 44.3448 73.6807 44.0898C73.6632 43.8348 73.6531 43.5998 73.6531 43.3873V37.3848C73.6531 35.7198 73.0881 34.4748 71.9531 33.6523C70.8181 32.8298 69.2781 32.4173 67.3306 32.4173C66.9231 32.4173 66.4706 32.4698 65.9756 32.5773C65.4806 32.6823 64.9832 32.8298 64.4882 33.0148C63.9932 33.1998 63.5056 33.4298 63.0281 33.7048C62.5506 33.9773 62.1256 34.2823 61.7531 34.6198L63.4807 36.7173C63.8532 36.3998 64.1931 36.1373 64.5031 35.9348C64.8106 35.7298 65.1181 35.5673 65.4182 35.4423C65.7206 35.3198 66.0256 35.2298 66.3356 35.1773C66.6456 35.1248 66.9756 35.0973 67.3306 35.0973C67.7381 35.0973 68.0832 35.1523 68.3657 35.2573C68.6482 35.3648 68.8931 35.5023 69.0956 35.6698C69.2981 35.8373 69.4681 36.0373 69.6006 36.2673C69.7331 36.4973 69.8531 36.7273 69.9581 36.9573H67.3281C66.3381 36.9573 65.4381 37.0848 64.6331 37.3423C63.8256 37.5998 63.1356 37.9473 62.5606 38.3923C61.9856 38.8373 61.5432 39.3548 61.2332 39.9473C60.9232 40.5398 60.7681 41.1648 60.7681 41.8198C60.7681 42.4748 60.9232 43.0948 61.2332 43.6798C61.5432 44.2648 61.9831 44.7773 62.5606 45.2198ZM70.0906 41.4498C70.0556 41.9273 69.8231 42.3273 69.3881 42.6448L69.3856 42.6473C68.9531 42.9648 68.2656 43.1248 67.3281 43.1248C66.3381 43.1248 65.5807 42.9998 65.0582 42.7523C64.5357 42.5048 64.2731 42.2123 64.2731 41.8223C64.2731 41.4323 64.5357 41.0698 65.0582 40.7323C65.5807 40.3948 66.3356 40.2273 67.3281 40.2273H70.0906V41.4498ZM80.5432 26.7348V33.9598C81.1457 33.4823 81.8181 33.1048 82.5606 32.8298C83.3056 32.5548 84.1006 32.4173 84.9506 32.4173C85.9231 32.4173 86.8456 32.6023 87.7131 32.9748C88.5806 33.3473 89.3382 33.8548 89.9832 34.5023C90.6307 35.1498 91.1381 35.9048 91.5106 36.7723C91.8831 37.6398 92.0681 38.5598 92.0681 39.5348C92.0681 40.5098 91.8831 41.4523 91.5106 42.3098C91.1381 43.1698 90.6307 43.9198 89.9832 44.5673C89.3382 45.2148 88.5806 45.7223 87.7131 46.0948C86.8456 46.4673 85.9256 46.6523 84.9506 46.6523C84.1006 46.6523 83.3031 46.5198 82.5606 46.2548C81.8181 45.9898 81.1432 45.6173 80.5432 45.1398V46.6548H77.0106V26.7348H80.5432ZM80.8481 40.9298C81.0331 41.3648 81.2907 41.7448 81.6182 42.0723C81.9457 42.3998 82.3256 42.6573 82.7606 42.8423C83.1956 43.0273 83.6581 43.1223 84.1556 43.1223C84.6531 43.1223 85.1157 43.0298 85.5507 42.8423C85.9857 42.6573 86.3656 42.3998 86.6931 42.0723C87.0206 41.7448 87.2781 41.3648 87.4631 40.9298C87.6481 40.4948 87.7432 40.0323 87.7432 39.5348C87.7432 39.0373 87.6506 38.5748 87.4631 38.1398C87.2781 37.7048 87.0206 37.3248 86.6931 36.9973C86.3656 36.6698 85.9857 36.4123 85.5507 36.2273C85.1157 36.0423 84.6531 35.9473 84.1556 35.9473C83.6581 35.9473 83.1956 36.0398 82.7606 36.2273C82.3256 36.4123 81.9457 36.6698 81.6182 36.9973C81.2907 37.3248 81.0331 37.7048 80.8481 38.1398C80.6631 38.5748 80.5681 39.0373 80.5681 39.5348C80.5681 40.0323 80.6606 40.4948 80.8481 40.9298ZM19.1207 27.0648C19.0182 26.9198 19.0382 26.7223 19.1682 26.5998V26.6023C19.2882 26.4898 19.4657 26.4748 19.6032 26.5623C20.2132 26.9523 20.8732 27.4123 21.4932 27.8773C24.7332 30.6323 27.8256 33.9373 29.0881 37.2773L29.0932 37.2823C32.4932 46.2898 22.0207 47.4348 12.9807 47.2348C-0.376835 46.9398 0.33066 43.1223 0.97566 40.7623C1.23566 39.8023 1.87568 38.6023 2.43068 37.6623C2.64318 37.3023 3.19318 37.4623 3.18318 37.8798C3.12068 40.7548 4.40063 46.1248 14.9406 45.6573C23.9006 45.2573 25.7957 36.5673 19.1207 27.0648ZM12.5507 23.6973C12.5507 25.4573 13.5506 26.5948 15.0956 26.5948C16.6406 26.5948 17.6406 25.4573 17.6406 23.6973C17.6406 21.6023 16.3256 20.8548 15.0956 20.8548C13.8656 20.8548 12.5507 21.5998 12.5507 23.6973ZM8.19812 33.4923C6.65312 33.4923 5.65314 32.3548 5.65314 30.5948C5.65314 28.4973 6.96812 27.7523 8.19812 27.7523C9.42812 27.7523 10.7432 28.4998 10.7432 30.5948C10.7432 32.3548 9.74312 33.4923 8.19812 33.4923ZM19.2781 16.9698C19.2781 18.7298 20.2781 19.8673 21.8231 19.8673C23.3681 19.8673 24.3682 18.7298 24.3682 16.9698C24.3682 14.8748 23.0531 14.1273 21.8231 14.1273C20.5931 14.1273 19.2781 14.8723 19.2781 16.9698Z" fill="#FBF6ED"/>
</svg>
