<svg width="131" height="32" viewBox="0 0 131 32" fill="none" xmlns="http://www.w3.org/2000/svg">
<path fill-rule="evenodd" clip-rule="evenodd" d="M7.47093 13.7797C7.54372 13.8762 7.53526 14.0117 7.44892 14.0963V14.0929C7.36936 14.1708 7.24916 14.1843 7.15436 14.1285C6.73284 13.8779 6.27747 13.5783 5.84748 13.277C3.59937 11.4791 1.43759 9.30551 0.514979 7.07094L0.51159 7.06756C-1.97522 1.04098 5.09077 0.0523515 11.2121 0.00156575C20.2605 -0.07292 19.8593 2.52731 19.4716 4.13722C19.3142 4.79066 18.9079 5.61847 18.5507 6.26514C18.4136 6.51399 18.0378 6.41581 18.0361 6.1331C18.0191 4.18631 17.0441 0.577138 9.91881 1.11039C3.86346 1.56407 2.75801 7.48569 7.47093 13.7797ZM39.3442 3.14174C38.816 3.37027 38.3556 3.68176 37.9595 4.0762C37.5633 4.47063 37.2519 4.93278 37.025 5.46095C36.7965 5.98912 36.6831 6.55115 36.6831 7.15212C36.6831 7.75308 36.7965 8.31511 37.025 8.84328C37.2535 9.37146 37.565 9.83191 37.9595 10.228C38.3539 10.6242 38.816 10.9357 39.3442 11.1625C39.8724 11.391 40.4344 11.5045 41.0354 11.5045C41.8513 11.5045 42.5843 11.3064 43.2378 10.9103C43.8912 10.5141 44.4092 9.98766 44.7935 9.32744H41.0354V6.93543H47.7611C47.7611 6.97098 47.7645 7.00823 47.7696 7.04378C47.7747 7.07933 47.778 7.11488 47.778 7.15212C47.778 8.08658 47.602 8.96178 47.2482 9.77774C46.8944 10.5937 46.4119 11.3064 45.8008 11.9175C45.1897 12.5286 44.4753 13.0111 43.661 13.3649C42.845 13.7187 41.9698 13.8948 41.0354 13.8948C40.1009 13.8948 39.2257 13.7187 38.4098 13.3649C37.5938 13.0111 36.8811 12.5286 36.27 11.9175C35.6589 11.3064 35.1764 10.592 34.8226 9.77774C34.4688 8.96178 34.2927 8.08658 34.2927 7.15212C34.2927 6.21766 34.4705 5.34245 34.8226 4.5265C35.1764 3.71054 35.6589 2.99785 36.27 2.38672C36.8811 1.7756 37.5955 1.29314 38.4098 0.939329C39.2257 0.585522 40.1009 0.409465 41.0354 0.409465C41.7193 0.409465 42.3727 0.507651 42.9957 0.705715C43.6187 0.903779 44.1976 1.17633 44.7309 1.52337C45.2641 1.8704 45.7381 2.28854 46.1512 2.77269C46.5643 3.25855 46.9028 3.79518 47.1669 4.3826L45.0813 5.58792C44.9256 5.17994 44.7157 4.80582 44.4516 4.46386C44.1875 4.1219 43.8794 3.82904 43.5256 3.58188C43.1718 3.33642 42.7858 3.14343 42.366 3.00631C41.9461 2.86919 41.5026 2.79978 41.0354 2.79978C40.4361 2.79978 39.8724 2.9132 39.3442 3.14174ZM49.2948 7.20629C49.5471 6.61887 49.8907 6.10593 50.3292 5.66917C50.7676 5.23242 51.2772 4.88707 51.8578 4.63484C52.4385 4.3826 53.0665 4.25733 53.7369 4.25733C54.4073 4.25733 55.0201 4.3826 55.6075 4.63484C56.1949 4.88707 56.7079 5.23072 57.1446 5.66917C57.5814 6.10762 57.9267 6.61887 58.179 7.20629C58.4312 7.79371 58.5565 8.41668 58.5565 9.0769C58.5565 9.25634 58.5446 9.4307 58.5209 9.5983C58.4972 9.76589 58.4667 9.93348 58.4312 10.1028H51.526C51.7292 10.5226 52.0237 10.8612 52.408 11.1185C52.7923 11.3758 53.2358 11.5045 53.7386 11.5045C54.3023 11.5045 54.8 11.3369 55.2317 11.0017H58.1451C57.9657 11.4334 57.7253 11.8261 57.4256 12.1799C57.126 12.5337 56.7874 12.8367 56.4099 13.0873C56.0324 13.3395 55.616 13.5376 55.1606 13.6815C54.7052 13.8254 54.2312 13.8965 53.7403 13.8965C53.0682 13.8965 52.4419 13.7712 51.8612 13.519C51.2806 13.2667 50.771 12.9231 50.3326 12.4846C49.8941 12.0462 49.5505 11.5383 49.2982 10.956C49.046 10.3753 48.9207 9.74727 48.9207 9.0769C48.9207 8.40652 49.046 7.79371 49.2982 7.20629H49.2948ZM52.3978 7.04377C52.0085 7.30786 51.7173 7.64982 51.526 8.06795H55.9495C55.7582 7.64812 55.467 7.30617 55.0776 7.04377C54.6883 6.77969 54.2414 6.64764 53.7386 6.64764C53.2358 6.64764 52.7889 6.77969 52.3995 7.04377H52.3978ZM66.0948 7.22491C66.2082 7.40435 66.2894 7.61427 66.3368 7.85465H66.3385C66.3859 8.09504 66.4096 8.35235 66.4096 8.62829V13.8982H68.8016V8.62829C68.8016 8.02902 68.717 7.46191 68.5494 6.92866C68.3818 6.39541 68.133 5.93157 67.8029 5.53544C67.4727 5.141 67.0715 4.82952 66.5975 4.60098C66.1252 4.37244 65.5818 4.25902 64.9707 4.25902C64.4561 4.25902 63.9905 4.40461 63.5775 4.69917C63.1644 4.99372 62.7886 5.33737 62.4534 5.7335V4.25902H60.0614V13.8982H62.4534V8.88053C62.4534 8.54365 62.5313 8.23893 62.687 7.963C62.8428 7.68706 63.0442 7.45006 63.2897 7.252C63.5352 7.05393 63.8077 6.90327 64.1074 6.8017C64.407 6.70012 64.7083 6.64934 64.9707 6.64934C65.2331 6.64934 65.4582 6.70012 65.6445 6.8017C65.8307 6.90496 65.9813 7.04547 66.0948 7.22491ZM70.6807 7.20629C70.9329 6.61887 71.2766 6.10593 71.715 5.66917C72.1535 5.23242 72.663 4.88707 73.2437 4.63484C73.8244 4.3826 74.4524 4.25733 75.1228 4.25733C75.7931 4.25733 76.406 4.3826 76.9934 4.63484C77.5808 4.88707 78.0937 5.23072 78.5305 5.66917C78.9673 6.10762 79.3126 6.61887 79.5648 7.20629C79.8171 7.79371 79.9423 8.41668 79.9423 9.0769C79.9423 9.25634 79.9305 9.4307 79.9068 9.5983C79.8831 9.76589 79.8526 9.93348 79.8171 10.1028H72.9119C73.1151 10.5226 73.4096 10.8612 73.7939 11.1185C74.1782 11.3758 74.6217 11.5045 75.1245 11.5045C75.6882 11.5045 76.1859 11.3369 76.6176 11.0017H79.531C79.3515 11.4334 79.1112 11.8261 78.8115 12.1799C78.5119 12.5337 78.1733 12.8367 77.7958 13.0873C77.4183 13.3395 77.0019 13.5376 76.5465 13.6815C76.0911 13.8254 75.6171 13.8965 75.1262 13.8965C74.4541 13.8965 73.8277 13.7712 73.2471 13.519C72.6664 13.2667 72.1569 12.9231 71.7184 12.4846C71.28 12.0462 70.9363 11.5383 70.6841 10.956C70.4319 10.3753 70.3066 9.74727 70.3066 9.0769C70.3066 8.40652 70.4319 7.79371 70.6841 7.20629H70.6807ZM73.7837 7.04377C73.3944 7.30786 73.1032 7.64982 72.9119 8.06795H77.3354C77.1441 7.64812 76.8529 7.30617 76.4635 7.04377C76.0742 6.77969 75.6272 6.64764 75.1245 6.64764C74.6217 6.64764 74.1748 6.77969 73.7854 7.04377H73.7837ZM84.1338 5.21041V4.25733H81.7435V13.8965H84.1355V9.0041C84.1355 8.59612 84.1897 8.24232 84.2981 7.94268C84.4064 7.64305 84.5503 7.39419 84.7297 7.19613C84.9092 6.99807 85.1123 6.85248 85.3408 6.75599C85.5694 6.65949 85.8081 6.61209 86.0603 6.61209C86.1923 6.61209 86.3481 6.63072 86.5275 6.66627C86.707 6.70182 86.9406 6.77969 87.2284 6.89988V4.43677C86.9524 4.37752 86.7239 4.3352 86.5445 4.3115C86.365 4.2878 86.2025 4.27595 86.0586 4.27595C85.6743 4.27595 85.3188 4.37244 84.9887 4.56374C84.6586 4.75503 84.3742 4.97002 84.1338 5.21041ZM90.4499 13.6358C89.9048 13.4614 89.4376 13.2244 89.0465 12.9248C88.6555 12.6251 88.3575 12.2781 88.1476 11.882C87.9377 11.4858 87.8328 11.066 87.8328 10.6225C87.8328 10.1789 87.9377 9.75573 88.1476 9.35452C88.3575 8.95331 88.6572 8.60289 89.0465 8.30156C89.4359 8.00024 89.9031 7.76493 90.4499 7.59056C90.995 7.4162 91.6044 7.32986 92.2748 7.32986H94.0557C93.9829 7.17412 93.9033 7.01838 93.8136 6.86263C93.7239 6.70689 93.6105 6.57146 93.4717 6.45804C93.3345 6.34462 93.1686 6.25151 92.9773 6.17872C92.7861 6.10762 92.5525 6.07038 92.2765 6.07038C92.0361 6.07038 91.8127 6.089 91.6027 6.12455C91.3928 6.1601 91.1863 6.22104 90.9815 6.30399C90.7783 6.38863 90.5701 6.49867 90.3602 6.63748C90.1503 6.77461 89.9201 6.95236 89.6678 7.16735L88.498 5.74704C88.7503 5.51851 89.0381 5.31198 89.3614 5.12745C89.6847 4.94124 90.0149 4.7855 90.35 4.66023C90.6852 4.53496 91.0221 4.43508 91.3573 4.36398C91.6925 4.29118 91.9989 4.25563 92.2748 4.25563C93.5936 4.25563 94.6364 4.53495 95.4049 5.09191C96.1735 5.64886 96.556 6.4919 96.556 7.61934V11.6839C96.556 11.8278 96.5628 11.9869 96.5747 12.1596C96.5865 12.334 96.6136 12.5185 96.6559 12.7165C96.6983 12.9146 96.7693 13.1161 96.8709 13.3192C96.9725 13.5223 97.113 13.7153 97.2941 13.8948H94.6871C94.5907 13.7983 94.5128 13.673 94.4535 13.5173C94.3943 13.3615 94.357 13.2481 94.3452 13.1753C94.1302 13.3666 93.8441 13.5342 93.4903 13.6781C93.1365 13.822 92.7319 13.8931 92.2765 13.8931C91.6045 13.8931 90.9967 13.8067 90.4516 13.6324L90.4499 13.6358ZM93.6697 11.1811C93.9643 10.9661 94.1217 10.6953 94.1454 10.3719V9.54412H92.2748C91.6028 9.54412 91.0915 9.65754 90.7377 9.88608C90.3839 10.1146 90.2078 10.3601 90.2078 10.6242C90.2078 10.8883 90.3839 11.0863 90.7377 11.2539C91.0915 11.4215 91.6044 11.5061 92.2748 11.5061C92.9096 11.5061 93.3752 11.3978 93.668 11.1828L93.6697 11.1811ZM99.2799 2.00922V4.25564H98.0204V6.64765H99.2799V10.2077C99.2799 10.8781 99.3577 11.4486 99.5135 11.9158C99.6692 12.3847 99.8842 12.7656 100.16 13.0585C100.436 13.3514 100.763 13.5647 101.14 13.6967C101.518 13.8288 101.934 13.8948 102.39 13.8948C102.64 13.8948 102.923 13.8643 103.234 13.8051C103.548 13.7458 103.888 13.6679 104.26 13.5714L103.937 11.4858C103.673 11.5468 103.431 11.601 103.209 11.6484C102.987 11.6958 102.811 11.7195 102.679 11.7195C102.366 11.7195 102.12 11.6111 101.941 11.3961C101.762 11.1811 101.672 10.785 101.672 10.2094V6.64934H103.632V4.25733H101.672V1.30837L99.2799 2.00922ZM106.319 3.30425V0.409465H108.711V3.30425H106.319ZM108.711 4.25733V13.8965H106.319V4.25733H108.711ZM111.92 5.66917C111.482 6.10593 111.138 6.61887 110.886 7.20629C110.634 7.79371 110.509 8.40652 110.509 9.0769C110.509 9.74727 110.634 10.3753 110.886 10.956C111.138 11.5383 111.482 12.0462 111.92 12.4846C112.357 12.9231 112.868 13.2667 113.449 13.519C114.03 13.7712 114.668 13.8965 115.328 13.8965C115.988 13.8965 116.611 13.7712 117.199 13.519C117.786 13.2667 118.297 12.9231 118.736 12.4846C119.174 12.0462 119.518 11.5383 119.77 10.956C120.022 10.3753 120.148 9.73711 120.148 9.0769C120.148 8.41668 120.022 7.79371 119.77 7.20629C119.518 6.61887 119.173 6.10762 118.736 5.66917C118.299 5.23072 117.786 4.88707 117.199 4.63484C116.611 4.3826 116 4.25733 115.328 4.25733C114.656 4.25733 114.03 4.3826 113.449 4.63484C112.868 4.88707 112.357 5.23072 111.92 5.66917ZM113.61 10.7951C113.388 10.5734 113.214 10.3161 113.089 10.0215C112.962 9.72695 112.899 9.41377 112.899 9.0769C112.899 8.74002 112.963 8.42684 113.089 8.13228C113.214 7.83772 113.388 7.58041 113.61 7.35864C113.832 7.13688 114.089 6.96252 114.384 6.83724C114.678 6.71028 114.991 6.64764 115.328 6.64764C115.665 6.64764 115.978 6.71197 116.273 6.83724C116.567 6.96252 116.825 7.13688 117.046 7.35864C117.268 7.58041 117.443 7.83772 117.568 8.13228C117.695 8.42684 117.757 8.74002 117.757 9.0769C117.757 9.41377 117.693 9.72695 117.568 10.0215C117.443 10.3161 117.268 10.5734 117.046 10.7951C116.825 11.0169 116.567 11.1913 116.273 11.3165C115.978 11.4435 115.665 11.5061 115.328 11.5061C114.991 11.5061 114.678 11.4418 114.384 11.3165C114.089 11.1913 113.832 11.0169 113.61 10.7951ZM127.928 7.85465C127.881 7.61427 127.799 7.40435 127.686 7.22491C127.573 7.04547 127.422 6.90496 127.236 6.8017C127.049 6.69843 126.824 6.64934 126.562 6.64934C126.3 6.64934 125.998 6.70012 125.699 6.8017C125.399 6.90327 125.126 7.05393 124.881 7.252C124.635 7.45006 124.434 7.68706 124.278 7.963C124.123 8.23893 124.045 8.54365 124.045 8.88053V13.8982H121.653V4.25902H124.045V5.7335C124.38 5.33737 124.756 4.99372 125.169 4.69917C125.582 4.40461 126.047 4.25902 126.562 4.25902C127.173 4.25902 127.716 4.37244 128.189 4.60098C128.663 4.82952 129.064 5.141 129.394 5.53544C129.724 5.92987 129.973 6.39541 130.141 6.92866C130.308 7.46191 130.393 8.02902 130.393 8.62829V13.8982H128.001V8.62829C128.001 8.35235 127.977 8.09504 127.928 7.85465ZM38.2066 29.1644V18.1032H35.7604V31.5919H44.6801V29.1644H38.2066ZM48.5754 31.3312C48.0303 31.1568 47.563 30.9198 47.172 30.6202C46.7809 30.3206 46.483 29.9735 46.2731 29.5774C46.0632 29.1813 45.9582 28.7615 45.9582 28.3179C45.9582 27.8744 46.0632 27.4512 46.2731 27.05C46.483 26.6488 46.7826 26.2983 47.172 25.997C47.5614 25.6957 48.0286 25.4604 48.5754 25.286C49.1205 25.1117 49.7299 25.0253 50.4003 25.0253H52.1812C52.1101 24.8696 52.0288 24.7138 51.9391 24.5581C51.8494 24.4023 51.7343 24.2669 51.5971 24.1535C51.46 24.0401 51.2941 23.947 51.1028 23.8742C50.9115 23.8031 50.6779 23.7658 50.402 23.7658C50.1616 23.7658 49.9381 23.7845 49.7282 23.82C49.5183 23.8556 49.3118 23.9165 49.1069 23.9994C48.9038 24.0841 48.6956 24.1941 48.4873 24.3329C48.2774 24.4701 48.0472 24.6478 47.795 24.8628L46.6252 23.4425C46.8774 23.214 47.1652 23.0074 47.4886 22.8229C47.8119 22.6367 48.142 22.481 48.4772 22.3557C48.8124 22.2304 49.1493 22.1305 49.4844 22.0594C49.8196 21.9866 50.126 21.9511 50.402 21.9511C51.7207 21.9511 52.7635 22.2304 53.5321 22.7874C54.3006 23.3443 54.6832 24.1874 54.6832 25.3148V29.3793C54.6832 29.5232 54.69 29.6824 54.7018 29.855C54.7137 30.0277 54.7408 30.2139 54.7831 30.412C54.8254 30.6101 54.8965 30.8115 54.9998 31.0146C55.103 31.2178 55.2418 31.4108 55.423 31.5902H52.816C52.7195 31.4937 52.6416 31.3685 52.5824 31.2127C52.5231 31.057 52.4859 30.9435 52.474 30.8708C52.2573 31.062 51.9729 31.2296 51.6191 31.3735C51.2653 31.5174 50.8607 31.5885 50.4053 31.5885C49.7333 31.5885 49.1255 31.5022 48.5804 31.3278L48.5754 31.3312ZM51.7952 28.8766C52.0898 28.6616 52.2472 28.3907 52.2709 28.0674V27.2396H50.4003C49.7282 27.2396 49.217 27.353 48.8632 27.5815C48.5094 27.8101 48.3316 28.0555 48.3316 28.3196C48.3316 28.5837 48.5094 28.7818 48.8632 28.9494C49.217 29.117 49.7299 29.2016 50.4003 29.2016C51.0351 29.2016 51.5006 29.0933 51.7935 28.8783L51.7952 28.8766ZM59.3504 22.9956V18.1032H56.9584V31.5919H59.3504V30.566C59.7567 30.8894 60.2138 31.1416 60.7166 31.3211C61.2194 31.5005 61.7594 31.5902 62.3349 31.5902C62.9951 31.5902 63.6181 31.4649 64.2056 31.2127C64.793 30.9605 65.3059 30.6168 65.7427 30.1784C66.1811 29.7399 66.5248 29.2321 66.777 28.6497C67.0293 28.0691 67.1545 27.4309 67.1545 26.7707C67.1545 26.1104 67.0293 25.4875 66.777 24.9C66.5248 24.3126 66.1811 23.8014 65.7427 23.3629C65.3059 22.9245 64.793 22.5808 64.2056 22.3286C63.6181 22.0764 62.9935 21.9511 62.3349 21.9511C61.7594 21.9511 61.221 22.0442 60.7166 22.2304C60.2138 22.4166 59.7584 22.6722 59.3504 22.9956ZM60.0784 28.4889C59.8566 28.2671 59.6822 28.0098 59.557 27.7153C59.43 27.4207 59.3674 27.1075 59.3674 26.7707C59.3674 26.4338 59.4317 26.1206 59.557 25.826C59.6822 25.5315 59.8566 25.2742 60.0784 25.0524C60.3001 24.8306 60.5575 24.6563 60.852 24.531C61.1466 24.404 61.4597 24.3414 61.7966 24.3414C62.1335 24.3414 62.4467 24.4057 62.7412 24.531C63.0358 24.6563 63.2931 24.8306 63.5149 25.0524C63.7366 25.2742 63.911 25.5315 64.0363 25.826C64.1632 26.1206 64.2259 26.4338 64.2259 26.7707C64.2259 27.1075 64.1615 27.4207 64.0363 27.7153C63.911 28.0098 63.7366 28.2671 63.5149 28.4889C63.2931 28.7107 63.0358 28.885 62.7412 29.0103C62.4467 29.1373 62.1335 29.1999 61.7966 29.1999C61.4597 29.1999 61.1466 29.1356 60.852 29.0103C60.5575 28.885 60.3001 28.7107 60.0784 28.4889ZM12.9153 18.0135C12.8273 18.0964 12.8137 18.2302 12.8832 18.3284C17.4031 24.7629 16.1199 30.6473 10.0527 30.9182C2.91561 31.2347 2.04886 27.5985 2.09118 25.6517C2.09795 25.369 1.72554 25.2606 1.58165 25.5044C1.20584 26.1409 0.772452 26.9535 0.596395 27.6035C0.159637 29.2016 -0.319438 31.7866 8.7255 31.9863C14.8469 32.1218 21.9383 31.3464 19.636 25.2471L19.6326 25.2437C18.7777 22.982 16.6836 20.7441 14.4897 18.8785C14.0699 18.5637 13.6229 18.2522 13.2099 17.9881C13.1168 17.9289 12.9966 17.939 12.9153 18.0152V18.0135ZM10.1576 18.0084C9.11146 18.0084 8.43432 17.2382 8.43432 16.0464C8.43432 14.6261 9.32476 14.1216 10.1576 14.1216C10.9905 14.1216 11.881 14.6278 11.881 16.0464C11.881 17.2382 11.2038 18.0084 10.1576 18.0084ZM3.76202 20.7187C3.76202 21.9105 4.43917 22.6807 5.48536 22.6807C6.53154 22.6807 7.2087 21.9105 7.2087 20.7187C7.2087 19.3001 6.31824 18.7939 5.48536 18.7939C4.65247 18.7939 3.76202 19.2984 3.76202 20.7187ZM14.7114 13.4546C13.6653 13.4546 12.9881 12.6844 12.9881 11.4926C12.9881 10.0723 13.8786 9.56782 14.7114 9.56782C15.5443 9.56782 16.4348 10.074 16.4348 11.4926C16.4348 12.6844 15.7576 13.4546 14.7114 13.4546ZM27.3266 0.00994765H27.3283C27.5929 0.00994765 27.8074 0.224438 27.8074 0.489026V31.5107C27.8074 31.7752 27.5929 31.9897 27.3283 31.9897H27.3266C27.062 31.9897 26.8475 31.7752 26.8475 31.5107V0.489026C26.8475 0.224438 27.062 0.00994765 27.3266 0.00994765Z" fill="black"/>
</svg>
