<svg width="93" height="118" viewBox="0 0 93 118" fill="none" xmlns="http://www.w3.org/2000/svg">
<path fill-rule="evenodd" clip-rule="evenodd" d="M10.2506 40.4812C10.2506 42.45 11.8594 44.0512 13.8319 44.0512H30.9506C32.9269 44.0512 34.5319 42.45 34.5319 40.4812V33.0412C34.5319 29.9062 33.1744 26.9025 30.8081 24.8062L30.1181 24.195L30.5531 23.385C31.2619 22.0575 31.6369 20.5612 31.6369 19.0537C31.6369 13.965 27.4894 9.82497 22.3931 9.82497C17.2969 9.82497 13.1494 13.965 13.1494 19.0537C13.1494 20.5612 13.5244 22.0575 14.2331 23.3812L14.6681 24.1912L13.9781 24.8025C11.6081 26.9025 10.2506 29.9025 10.2506 33.0412V40.4812ZM12.5831 33.0412C12.5831 30.5887 13.6406 28.2337 15.4894 26.58H15.4931L16.1944 25.95L16.9556 26.505C18.5494 27.6675 20.4319 28.2825 22.4006 28.2825C24.3694 28.2825 26.2519 27.6675 27.8419 26.5087L28.6031 25.9537L29.3044 26.5837C31.1494 28.2375 32.2069 30.5887 32.2069 33.0412V40.4812C32.2069 41.1637 31.6444 41.7187 30.9544 41.7187H13.8356C13.1456 41.7187 12.5831 41.1637 12.5831 40.4812V33.0412ZM15.4819 19.0537C15.4819 15.2512 18.5831 12.1575 22.3969 12.1575C26.2106 12.1575 29.3119 15.2512 29.3119 19.0537C29.3119 22.8562 26.2106 25.95 22.3969 25.95C18.5831 25.95 15.4819 22.8562 15.4819 19.0537Z" fill="#3F2501"/>
<path fill-rule="evenodd" clip-rule="evenodd" d="M43.7682 22.9387C43.7682 23.5837 44.2932 24.1049 44.9344 24.1049H69.6394C70.2844 24.1049 70.8057 23.58 70.8057 22.9387V10.995C70.8057 10.35 70.2807 9.82872 69.6394 9.82872H44.9344C44.2894 9.82872 43.7682 10.3537 43.7682 10.995V22.9387ZM68.4732 21.7762H46.1007V12.1612H68.4732V21.7762Z" fill="#3F2501"/>
<path d="M11.4131 71.8837C10.7719 71.8837 10.2469 71.3625 10.2469 70.7175C10.2469 70.0725 10.7681 69.5512 11.4131 69.5512H41.4506C42.0919 69.5512 42.6169 70.0725 42.6169 70.7175C42.6169 71.3625 42.0956 71.8837 41.4506 71.8837H11.4131Z" fill="#3F2501"/>
<path d="M36.5681 83.8274C35.9269 83.8274 35.4019 83.3062 35.4019 82.6612C35.4019 82.0162 35.9231 81.495 36.5681 81.495H41.4506C42.0919 81.495 42.6169 82.0162 42.6169 82.6612C42.6169 83.3062 42.0956 83.8274 41.4506 83.8274H36.5681Z" fill="#3F2501"/>
<path d="M10.2469 82.6612C10.2469 83.3062 10.7719 83.8274 11.4131 83.8274H24.9806C25.6256 83.8274 26.1469 83.3062 26.1469 82.6612C26.1469 82.0162 25.6219 81.495 24.9806 81.495H11.4131C10.7681 81.495 10.2469 82.0162 10.2469 82.6612Z" fill="#3F2501"/>
<path d="M11.4131 95.7712C10.7719 95.7712 10.2469 95.2499 10.2469 94.6049C10.2469 93.9599 10.7681 93.4387 11.4131 93.4387H26.4731C27.1144 93.4387 27.6394 93.9599 27.6394 94.6049C27.6394 95.2499 27.1181 95.7712 26.4731 95.7712H11.4131Z" fill="#3F2501"/>
<path fill-rule="evenodd" clip-rule="evenodd" d="M69.5156 95.7712C69.4631 95.7712 69.4106 95.7712 69.3619 95.7599C69.0506 95.7187 68.7769 95.5612 68.5894 95.3137C68.4019 95.0662 68.3194 94.7625 68.3606 94.4512C68.4956 93.4312 68.5144 92.4 68.4094 91.3875L68.3044 90.3412H53.5556L53.4506 91.3875C53.3494 92.4 53.3644 93.4275 53.4994 94.4512C53.5819 95.0887 53.1356 95.6737 52.4981 95.7599C52.4456 95.7674 52.3969 95.7712 52.3406 95.7712C51.7594 95.7712 51.2644 95.3362 51.1894 94.7587C50.2481 87.6412 54.2381 82.6274 57.7556 79.6762L58.8169 78.7837L57.7556 77.8912C54.2419 74.94 50.2481 69.9299 51.1894 62.8087C51.2644 62.2312 51.7594 61.7962 52.3406 61.7962C52.3931 61.7962 52.4456 61.7962 52.4981 61.8075C53.1356 61.8937 53.5856 62.4787 53.4994 63.1162C53.3644 64.1362 53.3456 65.1674 53.4506 66.1799L53.5556 67.2262H68.3044L68.4094 66.1799C68.5106 65.1712 68.4956 64.14 68.3606 63.1162C68.2781 62.4787 68.7244 61.8937 69.3619 61.8075C69.4144 61.8 69.4669 61.7962 69.5156 61.7962C70.0969 61.7962 70.5919 62.2312 70.6669 62.8087C71.6081 69.9299 67.6181 74.94 64.1006 77.8912L63.0356 78.7837L64.1006 79.6762C67.6181 82.6237 71.6119 87.6337 70.6669 94.7587C70.5919 95.3362 70.0969 95.7712 69.5156 95.7712ZM60.2306 80.6737C57.9919 82.3275 56.2669 84.2137 55.1006 86.2725L54.1144 88.0125H67.7381L66.7519 86.2725C65.5819 84.21 63.8531 82.3237 61.6144 80.6737L60.9206 80.1637L60.2269 80.6737H60.2306ZM55.1006 71.295C56.2669 73.3575 57.9956 75.24 60.2306 76.8937L60.9244 77.4037L61.6181 76.8937C63.8569 75.24 65.5856 73.3575 66.7556 71.295L67.7419 69.5549H54.1181L55.1044 71.295H55.1006Z" fill="#3F2501"/>
<path d="M44.9344 36.0487C44.2932 36.0487 43.7682 35.5275 43.7682 34.8825C43.7682 34.2375 44.2894 33.7162 44.9344 33.7162H48.8869C49.5282 33.7162 50.0532 34.2375 50.0532 34.8825C50.0532 35.5275 49.5319 36.0487 48.8869 36.0487H44.9344Z" fill="#3F2501"/>
<path d="M59.3119 34.8825C59.3119 35.5275 59.8369 36.0487 60.4781 36.0487H69.6356C70.2806 36.0487 70.8019 35.5275 70.8019 34.8825C70.8019 34.2375 70.2769 33.7162 69.6356 33.7162H60.4781C59.8331 33.7162 59.3119 34.2375 59.3119 34.8825Z" fill="#3F2501"/>
<path d="M11.4131 59.9362C10.7719 59.9362 10.2469 59.415 10.2469 58.77C10.2469 58.125 10.7681 57.6037 11.4131 57.6037H18.9506C19.5919 57.6037 20.1169 58.125 20.1169 58.77C20.1169 59.415 19.5956 59.9362 18.9506 59.9362H11.4131Z" fill="#3F2501"/>
<path d="M29.3719 58.77C29.3719 59.415 29.8969 59.9362 30.5381 59.9362H43.7719C44.4169 59.9362 44.9381 59.415 44.9381 58.77C44.9381 58.125 44.4131 57.6037 43.7719 57.6037H30.5381C29.8931 57.6037 29.3719 58.125 29.3719 58.77Z" fill="#3F2501"/>
<path d="M44.9344 47.9925C44.2932 47.9925 43.7682 47.4712 43.7682 46.8262C43.7682 46.1812 44.2894 45.66 44.9344 45.66H48.8869C49.5282 45.66 50.0532 46.1812 50.0532 46.8262C50.0532 47.4712 49.5319 47.9925 48.8869 47.9925H44.9344Z" fill="#3F2501"/>
<path d="M59.3119 46.8262C59.3119 47.4712 59.8369 47.9925 60.4781 47.9925H69.6356C70.2806 47.9925 70.8019 47.4712 70.8019 46.8262C70.8019 46.1812 70.2769 45.66 69.6356 45.66H60.4781C59.8331 45.66 59.3119 46.1812 59.3119 46.8262Z" fill="#3F2501"/>
<path fill-rule="evenodd" clip-rule="evenodd" d="M16.1119 117.052C13.8994 117.052 12.1031 115.256 12.1031 113.047V105.484H4.52063C2.31188 105.484 0.515625 103.691 0.515625 101.486V4.11371C0.515625 1.90871 2.31188 0.116211 4.52063 0.116211H76.5394C78.7481 0.116211 80.5444 1.90871 80.5444 4.11371V11.6775H88.1269C90.3356 11.6775 92.1319 13.4737 92.1319 15.6825V49.9125C92.1319 50.5537 91.6106 51.0787 90.9656 51.0787C90.3206 51.0787 89.7994 50.5575 89.7994 49.9125V15.6825C89.7994 14.775 89.0344 14.0062 88.1269 14.0062H80.5444V101.486C80.5444 103.691 78.7481 105.484 76.5394 105.484H14.4319V113.047C14.4319 113.955 15.2006 114.724 16.1119 114.724H88.1269C89.0344 114.724 89.8031 113.959 89.8031 113.047V70.83C89.8031 70.1887 90.3244 69.6637 90.9694 69.6637C91.6144 69.6637 92.1356 70.185 92.1356 70.83V113.047C92.1356 115.256 90.3394 117.052 88.1306 117.052H16.1119ZM4.52063 2.44496C3.59812 2.44496 2.84438 3.19496 2.84438 4.11371V101.486C2.84438 102.405 3.59438 103.155 4.52063 103.155H76.5394C77.4619 103.155 78.2156 102.405 78.2156 101.486V4.11371C78.2156 3.19496 77.4656 2.44496 76.5431 2.44496H4.52063Z" fill="#3F2501"/>
<path d="M89.7994 60.375C89.7994 61.0162 90.3244 61.5374 90.9657 61.5374C91.6107 61.5374 92.1319 61.0162 92.1319 60.3712C92.1319 59.7262 91.6107 59.205 90.9657 59.205C90.3207 59.205 89.7994 59.7337 89.7994 60.375Z" fill="#3F2501"/>
</svg>
