<svg width="105" height="121" viewBox="0 0 105 121" fill="none" xmlns="http://www.w3.org/2000/svg">
<path d="M93.9251 0H28.7243C22.7772 0 17.9384 4.83875 17.9384 10.7859V18.2695H20.3348V10.7859C20.3348 6.15737 24.0996 2.39644 28.7243 2.39644H93.9251C98.5536 2.39644 102.318 6.15737 102.318 10.7859V109.545C102.318 114.173 98.5536 117.934 93.9251 117.934H28.7243C24.0996 117.934 20.3348 114.173 20.3348 109.545V105.031H17.9384V109.545C17.9384 115.492 22.7772 120.33 28.7243 120.33H93.9251C99.8761 120.33 104.715 115.492 104.715 109.545V10.7859C104.715 4.83875 99.8761 0 93.9251 0Z" fill="black"/>
<path d="M29.6837 69.7299C29.0224 69.7299 28.4835 70.2688 28.4835 70.93V106.353C28.4835 108.249 30.0238 109.789 31.9196 109.789H90.7299C92.6256 109.789 94.1659 108.249 94.1659 106.353V13.9811C94.1659 13.0638 93.8066 12.2038 93.1569 11.5541C92.5071 10.9043 91.6433 10.5451 90.7299 10.5451H74.314C73.8477 10.5451 73.4197 10.8164 73.2248 11.2407L71.1073 15.8195H51.5383L49.4247 11.2407C49.2298 10.8164 48.8017 10.5451 48.3354 10.5451H31.9196C30.0238 10.5451 28.4835 12.0853 28.4835 13.9811V49.3544C28.4835 50.0156 29.0224 50.5546 29.6837 50.5546C30.3449 50.5546 30.8838 50.0156 30.8838 49.3544V12.9415H47.571L49.6846 17.5203C49.8795 17.9446 50.3076 18.216 50.7739 18.216H71.8756C72.3419 18.216 72.7699 17.9446 72.9649 17.5203L75.0823 12.9415H91.7695V107.385H30.8838V70.9262C30.8838 70.265 30.3449 69.7261 29.6837 69.7261V69.7299Z" fill="black"/>
<path d="M28.7816 60.989C29.0033 61.2106 29.3167 61.3406 29.6301 61.3406C29.9436 61.3406 30.257 61.2106 30.4786 60.989C30.7003 60.7673 30.8303 60.4539 30.8303 60.1405C30.8303 59.8271 30.7041 59.5175 30.4748 59.292C30.2531 59.0703 29.9474 58.9442 29.6301 58.9442C29.3129 58.9442 29.0071 59.0703 28.7816 59.2958C28.56 59.5175 28.43 59.827 28.43 60.1443C28.43 60.4615 28.56 60.7711 28.7816 60.9928V60.989Z" fill="black"/>
<path d="M3.34954 92.5554H21.4585L21.5923 93.5912C21.7643 94.9442 21.7567 96.3431 21.5694 97.7496C21.4853 98.3994 21.9401 98.9956 22.5899 99.0835C22.6434 99.0912 22.6969 99.095 22.7504 99.095C23.3428 99.095 23.8473 98.6517 23.9238 98.0631C25.0819 89.3373 20.0673 83.2754 15.6566 79.7247L14.5482 78.8342L15.626 77.9054C19.4175 74.6261 23.9352 68.8203 23.9352 59.7811C23.9352 50.7419 19.4175 44.9438 15.6299 41.6645L14.552 40.7319L15.6643 39.8414C17.667 38.2361 19.3526 36.4665 20.6674 34.5822C23.4498 30.5919 24.5468 26.1889 23.9238 21.503C23.8473 20.9144 23.3428 20.4711 22.7504 20.4711C22.6969 20.4711 22.6434 20.4711 22.5937 20.4825C22.2803 20.5246 22.0013 20.6851 21.8063 20.9374C21.6152 21.1896 21.5312 21.4992 21.5732 21.8164C21.7605 23.223 21.7681 24.6218 21.5923 25.9787L21.4585 27.0145H3.35336L3.21959 25.9787C3.04759 24.6257 3.05141 23.2268 3.2387 21.8164C3.3266 21.1667 2.86795 20.5704 2.2182 20.4825C2.16469 20.4749 2.11118 20.4711 2.05767 20.4711C1.46525 20.4711 0.960738 20.9144 0.884297 21.503C0.261298 26.1927 1.35823 30.5919 4.14071 34.5822C5.4555 36.4703 7.14104 38.2399 9.1438 39.8414L10.256 40.7319L9.1782 41.6645C5.39053 44.9438 0.876652 50.7457 0.876652 59.7811C0.876652 68.8165 5.39435 74.6261 9.18585 77.9054L10.2637 78.8342L9.15527 79.7247C4.74459 83.2754 -0.269971 89.3373 0.888119 98.0631C0.96456 98.6517 1.46907 99.095 2.0615 99.095C2.11501 99.095 2.16851 99.095 2.22202 99.0835C2.53543 99.0415 2.81445 98.881 3.00937 98.6287C3.20048 98.3765 3.28456 98.0669 3.24252 97.7496C3.05524 96.3431 3.04759 94.9442 3.22341 93.5912L3.35718 92.5554H3.34954ZM4.81721 31.1041L3.94196 29.3803H20.8661L19.9909 31.1041C18.1754 34.6739 15.24 37.2653 13.0997 38.8094L12.4079 39.3101L11.7122 38.8094C9.56806 37.2653 6.63652 34.6777 4.82104 31.1041H4.81721ZM5.37906 50.3406C7.20601 46.6064 9.81267 44.1106 11.6778 42.6773L12.4002 42.1193L13.1226 42.6773C14.9878 44.1106 17.5944 46.6064 19.4214 50.3406L20.2584 52.0491H4.54585L5.38288 50.3406H5.37906ZM3.67823 64.1842C3.39158 62.7547 3.24634 61.2717 3.24634 59.7773C3.24634 58.2829 3.39158 56.8037 3.67823 55.3781L3.86934 54.4264H20.9349L21.126 55.3781C21.4127 56.8037 21.5579 58.2829 21.5579 59.7773C21.5579 61.2717 21.4127 62.7547 21.126 64.1842L20.9349 65.1359H3.87316L3.68206 64.1842H3.67823ZM5.37906 69.2217L4.54202 67.5132H20.2584L19.4214 69.2217C17.5944 72.9558 14.9878 75.4516 13.1226 76.8849L12.4002 77.4429L11.6778 76.8849C9.81267 75.4478 7.20983 72.9558 5.37906 69.2217ZM4.80957 88.4582C6.62506 84.8807 9.56041 82.2932 11.7084 80.749L12.4002 80.2522L13.092 80.749C15.2362 82.2893 18.1754 84.8807 19.9909 88.4582L20.8661 90.1819H3.93814L4.81339 88.4582H4.80957Z" fill="black"/>
<path d="M36.9685 84.5979C36.8691 85.2247 37.2972 85.8095 37.924 85.9089C37.9852 85.9165 38.0425 85.9241 38.1037 85.9241C38.6579 85.9241 39.1471 85.519 39.235 84.9533C39.2465 84.8845 40.3358 78.3985 46.6995 75.3179C47.5786 77.0722 49.3903 78.28 51.4809 78.28C54.1717 78.28 56.3961 76.281 56.7707 73.6935H66.968C67.4419 75.0274 68.7109 75.9867 70.2091 75.9867C71.7074 75.9867 72.9878 75.0197 73.4579 73.6744C81.511 73.2731 88.9373 64.4899 88.9373 57.6408C88.9373 57.0063 88.4252 56.4941 87.7907 56.4941C87.1562 56.4941 86.6441 57.0063 86.6441 57.6408C86.6441 63.3624 80.2 70.976 73.4426 71.3811C72.9648 70.0549 71.6997 69.107 70.2091 69.107C68.7185 69.107 67.4419 70.0663 66.968 71.4002H56.6063C55.9451 69.1911 53.9003 67.5782 51.4809 67.5782C48.5303 67.5782 46.13 69.9784 46.13 72.9291C46.13 72.9673 46.1339 73.0055 46.1377 73.0476C38.3215 76.5371 37.0259 84.2654 36.9723 84.6017L36.9685 84.5979ZM51.4771 69.8676C53.1627 69.8676 54.5348 71.2397 54.5348 72.9253C54.5348 74.6108 53.1627 75.9829 51.4771 75.9829C49.7916 75.9829 48.4195 74.6108 48.4195 72.9253C48.4195 71.2397 49.7916 69.8676 51.4771 69.8676Z" fill="black"/>
<path d="M68.6765 32.4111C69.3109 32.4111 69.8231 31.899 69.8231 31.2645C69.8231 30.6301 69.3109 30.1179 68.6765 30.1179H55.2992C54.6647 30.1179 54.1526 30.6301 54.1526 31.2645C54.1526 31.899 54.6647 32.4111 55.2992 32.4111H68.6765Z" fill="black"/>
<path d="M45.744 40.0553C45.744 40.6898 46.2562 41.2019 46.8906 41.2019H77.085C77.7195 41.2019 78.2317 40.6898 78.2317 40.0553C78.2317 39.4208 77.7195 38.9087 77.085 38.9087H46.8906C46.2562 38.9087 45.744 39.4208 45.744 40.0553Z" fill="black"/>
<path d="M50.3305 47.6994C49.696 47.6994 49.1839 48.2116 49.1839 48.8461C49.1839 49.4805 49.696 49.9927 50.3305 49.9927H74.4096C75.0441 49.9927 75.5562 49.4805 75.5562 48.8461C75.5562 48.2116 75.0441 47.6994 74.4096 47.6994H50.3305Z" fill="black"/>
</svg>
