<svg width="109" height="117" viewBox="0 0 109 117" fill="none" xmlns="http://www.w3.org/2000/svg">
<path fill-rule="evenodd" clip-rule="evenodd" d="M46.1958 47.2626C47.0495 44.6269 49.4877 42.856 52.254 42.856C55.7696 42.856 58.6253 45.7192 58.6253 49.2236C58.6253 52.728 55.7696 55.58 52.254 55.58C49.4877 55.58 47.0532 53.8129 46.1958 51.1809L45.9348 50.3793H38.2176L37.9604 51.1809C37.1029 53.8129 34.6685 55.58 31.8985 55.58C28.3829 55.58 25.5234 52.7355 25.5234 49.2236C25.5234 45.7117 28.3829 42.856 31.8985 42.856C34.6685 42.856 37.1029 44.6269 37.9604 47.2626L38.2176 48.0642H45.9348L46.1958 47.2626ZM27.8386 49.2236C27.8386 51.4493 29.6616 53.2649 31.8985 53.2649C34.1354 53.2649 35.9547 51.4568 35.9547 49.2236C35.9547 46.9905 34.1354 45.1712 31.8985 45.1712C29.6616 45.1712 27.8386 46.9979 27.8386 49.2236ZM48.2015 49.2199C48.2015 51.4493 50.0208 53.2649 52.254 53.2649C54.4908 53.2649 56.3101 51.4568 56.3101 49.2236C56.3101 46.9905 54.4871 45.1712 52.254 45.1712C50.0208 45.1712 48.2015 46.9905 48.2015 49.2199Z" fill="#3F2501"/>
<path fill-rule="evenodd" clip-rule="evenodd" d="M95.6978 92.6971L94.6353 91.8098L95.6941 90.9225C99.2246 87.9661 103.236 82.9407 102.285 75.8013C102.211 75.2272 101.719 74.7947 101.141 74.7947C101.089 74.7947 101.036 74.7947 100.984 74.8059C100.351 74.8917 99.9031 75.4733 99.9889 76.107C100.127 77.136 100.142 78.1761 100.037 79.1902L99.9292 80.2303H85.1287L85.0205 79.1902C84.9162 78.1724 84.9348 77.136 85.069 76.107C85.11 75.8013 85.028 75.4956 84.8416 75.2496C84.6552 75.0035 84.383 74.8469 84.0736 74.8059C84.0214 74.7985 83.9692 74.7947 83.917 74.7947C83.3392 74.7947 82.8471 75.2272 82.7725 75.8013C81.8256 82.9407 85.8333 87.9661 89.3638 90.9225L90.4226 91.8098L89.3601 92.6971C85.8295 95.6498 81.8181 100.672 82.7688 107.822C82.8433 108.396 83.3354 108.829 83.9133 108.829C83.9655 108.829 84.0177 108.829 84.0699 108.817C84.7037 108.732 85.151 108.15 85.0653 107.516C84.9273 106.484 84.9124 105.443 85.0131 104.426L85.1212 103.386H99.9218L100.03 104.426C100.134 105.443 100.116 106.484 99.9814 107.516C99.9404 107.822 100.022 108.128 100.209 108.374C100.395 108.62 100.671 108.776 100.977 108.817C101.029 108.825 101.081 108.829 101.133 108.829C101.711 108.829 102.203 108.396 102.278 107.822C103.229 100.672 99.2172 95.6498 95.6866 92.6971H95.6978ZM86.6646 84.2716L85.6916 82.5455H99.3775L98.4044 84.2716C97.2301 86.3556 95.4853 88.2607 93.2224 89.9346L92.5364 90.4416L91.8504 89.9346C89.5837 88.2644 87.8427 86.3593 86.6684 84.2716H86.6646ZM85.6879 101.07L86.6609 99.3443C87.8353 97.2566 89.58 95.3552 91.8467 93.6851L92.5327 93.178L93.2186 93.6851C95.4853 95.3552 97.2301 97.2566 98.4044 99.3443L99.3775 101.07H85.6879Z" fill="#3F2501"/>
<path d="M80.1368 67.2005H67.4612C66.8423 67.2005 66.3428 66.701 66.3428 66.0821C66.3428 65.4632 66.8423 64.9637 67.4612 64.9637H80.1368C80.7556 64.9637 81.2552 65.4632 81.2552 66.0821C81.2552 66.701 80.7556 67.2005 80.1368 67.2005Z" fill="#3F2501"/>
<path d="M81.628 89.1218H67.4612C66.8423 89.1218 66.3428 89.6214 66.3428 90.2403C66.3428 90.8591 66.8423 91.3587 67.4612 91.3587H81.628C82.2469 91.3587 82.7464 90.8591 82.7464 90.2403C82.7464 89.6214 82.2469 89.1218 81.628 89.1218Z" fill="#3F2501"/>
<path d="M67.4612 105.227H76.0359C76.6547 105.227 77.1543 105.727 77.1543 106.346C77.1543 106.965 76.6547 107.464 76.0359 107.464H67.4612C66.8423 107.464 66.3428 106.965 66.3428 106.346C66.3428 105.727 66.8423 105.227 67.4612 105.227Z" fill="#3F2501"/>
<path d="M76.0359 97.1746H67.4612C66.8423 97.1746 66.3428 97.6741 66.3428 98.293C66.3428 98.9119 66.8423 99.4114 67.4612 99.4114H76.0359C76.6547 99.4114 77.1543 98.9119 77.1543 98.293C77.1543 97.6741 76.6547 97.1746 76.0359 97.1746Z" fill="#3F2501"/>
<path d="M77.5271 83.306H67.4612C66.8423 83.306 66.3428 82.8064 66.3428 82.1875C66.3428 81.5687 66.8423 81.0691 67.4612 81.0691H77.5271C78.146 81.0691 78.6455 81.5687 78.6455 82.1875C78.6455 82.8064 78.146 83.306 77.5271 83.306Z" fill="#3F2501"/>
<path d="M67.4612 75.2533H77.5271C78.146 75.2533 78.6455 74.7537 78.6455 74.1348C78.6455 73.516 78.146 73.0164 77.5271 73.0164H67.4612C66.8423 73.0164 66.3428 73.516 66.3428 74.1348C66.3428 74.7537 66.8423 75.2533 67.4612 75.2533Z" fill="#3F2501"/>
<path d="M99.8956 67.2005H85.7288C85.1099 67.2005 84.6104 66.701 84.6104 66.0821C84.6104 65.4632 85.1099 64.9637 85.7288 64.9637H99.8956C100.514 64.9637 101.014 65.4632 101.014 66.0821C101.014 66.701 100.514 67.2005 99.8956 67.2005Z" fill="#3F2501"/>
<path fill-rule="evenodd" clip-rule="evenodd" d="M67.7443 56.3891H104.369C106.427 56.3891 108.097 58.0592 108.097 60.1172V112.683C108.097 114.741 106.427 116.412 104.369 116.412H85.0576C84.8936 116.501 84.7072 116.553 84.5058 116.553H1.73073C1.09322 116.553 0.571289 116.031 0.571289 115.394V100.22C0.694317 95.1912 1.52568 91.7837 3.26298 89.1889C5.06738 86.4935 7.98276 84.54 12.4416 83.045C13.1313 82.8623 24.8152 79.8239 31.0113 78.2171L31.8762 77.9897V71.678L31.1753 71.376C22.6193 67.7076 16.5015 60.0836 14.8201 50.9796L14.6449 50.0326H12.2775C8.19899 50.0326 4.87725 46.7146 4.87725 42.6398C4.87725 38.9192 7.66215 35.7652 11.3567 35.3066L12.9784 35.1053L12.2514 33.6402C11.1591 31.4555 10.5813 29.0099 10.5813 26.5717C10.5813 17.7845 17.7467 10.634 26.5562 10.634H28.0922L28.4351 10.1084C32.3534 4.12475 38.9372 0.553223 46.0467 0.553223H53.9764C65.5671 0.553223 74.9955 9.96669 74.9955 21.535C74.9955 25.8037 73.7018 29.9195 71.2562 33.4388L70.0594 35.1538L72.1509 35.2544C76.099 35.4483 79.1933 38.565 79.1933 42.6398C79.1933 46.7146 75.8678 50.0326 71.7856 50.0326H69.5114L69.3362 50.9796C68.9895 52.8548 68.4564 54.6629 67.7443 56.3891ZM2.88644 100.265V114.234H21.7022L17.3925 102.983C17.2434 102.588 17.3179 102.144 17.5938 101.82L21.9706 96.6601L18.3506 91.0679C18.1717 90.792 18.1195 90.4528 18.2052 90.1359L20.0022 83.4663L13.1723 85.2409L13.135 85.2558C5.5073 87.8207 3.11386 91.3289 2.88644 100.265ZM24.1814 114.234H31.8762V80.3831L22.582 82.799L20.5763 90.244L24.3827 96.1232C24.6586 96.5482 24.6213 97.1149 24.2932 97.5026L19.8009 102.797L24.1814 114.234ZM76.8744 42.6398C76.8744 39.84 74.5928 37.5621 71.7856 37.5621H69.7985V45.9466C69.7985 46.1442 69.7947 46.3381 69.791 46.5319L69.7649 47.7175H71.7856C74.5928 47.7175 76.8744 45.4396 76.8744 42.6398ZM7.1924 42.6398C7.1924 45.4396 9.474 47.7175 12.2775 47.7175H14.3914L14.3653 46.5357L14.3651 46.5247C14.3614 46.3309 14.3578 46.1406 14.3578 45.9466V37.5621H12.2775C9.474 37.5621 7.1924 39.84 7.1924 42.6398ZM15.7223 34.8369L16.0765 35.2954L16.6543 35.288C22.2838 35.2171 26.7724 30.3892 30.8845 25.4532C31.1045 25.1848 31.4325 25.0357 31.7755 25.0357C31.9657 25.0357 32.2453 25.0804 32.51 25.2967C39.5971 31.1013 49.2902 34.0428 61.3208 34.0428C63.3377 34.0428 65.4478 33.9571 67.5952 33.793L68.0873 33.7557L68.4004 33.3755C71.1592 30.0463 72.6803 25.841 72.6803 21.535C72.6803 11.2417 64.2883 2.86838 53.9764 2.86838H46.0467C39.3473 2.86838 33.1102 6.50701 29.7661 12.3639C29.561 12.7255 29.177 12.9492 28.7632 12.9492H26.5562C19.0254 12.9492 12.9001 19.0595 12.9001 26.5717C12.9001 29.5392 13.903 32.4733 15.7223 34.8369ZM34.1951 114.234H49.9612V87.8505L48.291 88.6782C46.3711 89.6288 44.2199 90.1321 42.0763 90.1321C39.9326 90.1321 37.7852 89.6288 35.8653 88.6782L34.1951 87.8505V114.234ZM49.5474 85.1104L49.9612 84.7637V72.5057L48.5371 72.8449C46.427 73.3482 44.246 73.6054 42.0726 73.6054C39.8991 73.6054 37.7256 73.3482 35.6192 72.8449L34.1913 72.5057V84.7637L34.6089 85.1104C36.6929 86.8551 39.3399 87.817 42.0763 87.817C44.8127 87.817 47.4634 86.8551 49.5474 85.1104ZM52.2764 80.3831V114.234H59.9712C59.7512 113.765 59.6319 113.239 59.6319 112.683V97.0851C59.5648 96.8688 59.5648 96.6377 59.6319 96.4177V82.2957L52.2764 80.3831ZM52.2764 71.6743V77.9897L53.145 78.2134C53.9769 78.429 54.907 78.6709 55.8961 78.9281C57.0791 79.2358 58.3467 79.5655 59.6319 79.8985V67.346C57.6449 68.9714 55.4117 70.3322 52.981 71.3723L52.2764 71.6743ZM59.6319 64.2293V60.1172C59.6319 58.0592 61.3021 56.3891 63.36 56.3891H65.2017C66.6743 53.1642 67.4833 49.6151 67.4833 45.9466V36.1343L66.2568 36.2088C64.5791 36.3095 62.9201 36.3579 61.3245 36.3579C49.7003 36.3579 40.1004 33.6924 32.7896 28.432L31.9321 27.8131L31.2387 28.6109C27.656 32.738 23.2456 37.0253 17.7206 37.5547L16.673 37.6553V45.9466C16.673 46.8638 16.7252 47.7995 16.8258 48.7278L16.8333 48.7875C17.8883 58.1674 24.3119 66.3729 33.1959 69.6909L33.2556 69.7133L33.319 69.7282C33.3935 69.7469 33.4681 69.773 33.5352 69.8065L33.5911 69.8326L33.6545 69.855C36.3574 70.8056 39.187 71.2903 42.0763 71.2903C44.9656 71.2903 47.8064 70.8056 50.5167 69.8475L50.5726 69.8289L50.6286 69.8028C50.6919 69.773 50.759 69.7469 50.8336 69.7282L50.8895 69.7133L50.9454 69.6947C54.2411 68.4644 57.1826 66.5817 59.6319 64.2293ZM104.369 114.175C105.193 114.175 105.86 113.507 105.86 112.683V60.1172C105.86 59.2933 105.193 58.6259 104.369 58.6259H63.36C62.5361 58.6259 61.8688 59.2933 61.8688 60.1172V112.683C61.8688 113.217 62.1484 113.683 62.5659 113.944C62.7971 114.089 63.0692 114.175 63.36 114.175H104.369Z" fill="#3F2501"/>
</svg>
